<svg width="527" height="553" viewBox="0 0 527 553" fill="none" xmlns="http://www.w3.org/2000/svg">
<path d="M79.0299 481C50.5299 457 -4.17011 395 5.02989 339C16.5299 269 66.0299 182.5 106.03 156C146.03 129.5 225.53 96.5 297.03 123C354.23 144.2 373.863 116.5 376.53 100C379.53 83.8333 386.93 52.8 392.53 58C399.53 64.5 414.03 57.5 387.53 110.5C366.33 152.9 373.697 147.5 380.03 139.5C396.03 122.5 433.23 93.6 454.03 114C474.83 134.4 507.697 128.5 521.53 123C526.03 130 521.33 146.4 466.53 156C398.03 168 390.53 141.5 366.03 156C341.53 170.5 342.03 205.5 349.53 204.5C357.03 203.5 377.53 172 319.53 102.5C273.13 46.9 287.863 14.3333 301.03 5C306.863 14.8333 321.63 36 334.03 42C349.53 49.5 348.53 103.5 346.53 107C344.53 110.5 369.03 167.5 401.53 186C427.53 200.8 437.697 265.5 439.53 296C441.863 314 445.13 353.7 439.53 368.5C432.53 387 406.53 463 363.03 490.5C319.53 518 277.03 533.5 221.03 536C165.03 538.5 149.53 538 144.03 546C138.53 554 85.5299 548 90.0299 526.5C94.5299 505 83.5299 481 79.0299 481Z" stroke="#50C878" stroke-width="6.76417"/>
</svg>
