<svg width="424" height="558" viewBox="0 0 424 558" fill="none" xmlns="http://www.w3.org/2000/svg">
<path d="M54 550.5C55 548.5 54.4999 526 61.9999 513C69.4999 500 90.9999 460 90.9999 455.5C90.9999 451 99.9999 429 93.4999 417.5C86.9999 406 90.9999 409 80.9999 400C70.9999 391 49.9999 368.5 49.4999 365.5C48.9999 362.5 31.4999 344 32.4999 312.5C33.4999 281 35.9997 281 32.4999 264.5C29.0002 248 3.50017 239.5 3.00017 226C2.50017 212.5 3.00017 173 10.0002 172.5C17.0002 172 21 166 28.5 176C36 186 31.5 225.5 28 224.5C24.5 223.5 14.5 214 19.5 199C24.5 184 35.0001 158.5 58 140.5C80.9999 122.5 138.5 121.5 152 136C162.8 147.6 158.167 146.5 154.5 144.5C139.667 142.333 106.7 140 93.4999 148C80.3 156 97.3333 155 107.5 153.5C122.333 156.5 152 165.2 152 176C152 186.8 104.667 178.167 80.9999 172.5C93.6666 166.667 123.8 156.1 143 160.5C167 166 172 169.5 173 186C173.8 199.2 149.333 242.5 137 262.5C135.833 267.833 135.1 278.4 141.5 278C149.5 277.5 157.5 275.5 157.5 267.5C157.5 261.1 150.167 266.167 146.5 269.5C144.667 274.333 142.1 284.1 146.5 284.5C152 285 157 292.5 165 291C173 289.5 192.5 296.5 198 284.5C202.4 274.9 190.5 273.167 184 273.5C177.167 278.5 162.9 290.9 160.5 300.5L157.5 312.5C153.5 308.5 142.9 302 132.5 308C122.1 314 114.167 319.5 111.5 321.5C134.667 326.5 184.4 335.3 198 330.5C211.6 325.7 206.667 322.5 202.5 321.5C196.333 318.167 179.3 312.5 160.5 316.5C141.7 320.5 130.333 327.5 127 330.5C125.333 336.333 124.1 347.9 132.5 347.5C143 347 151.5 352.5 173 350C190.2 348 194.5 342.833 194.5 340.5C186.833 337 167.6 333 152 345C136.4 357 135.5 371 137 376.5C135.833 391.5 141.4 421.9 173 423.5C212.5 425.5 237.5 423.5 261.5 400C285.5 376.5 317 312 321 255.5C324.2 210.3 343.333 208.667 352.5 213.5C355.5 223.667 358.5 247.7 346.5 262.5C334.5 277.3 321.5 251 316.5 236C312.667 223.333 305.5 196.8 307.5 192C310 186 334.5 153.5 346.5 153.5C356.1 153.5 332.167 187.5 319 204.5C313.333 207.333 299.6 210.9 290 202.5C280.4 194.1 276.333 179 275.5 172.5C272.167 167.167 263.6 155.3 256 150.5C248.4 145.7 267.167 183.167 277.5 202.5C282.5 205.667 293.8 209.4 299 199C304.2 188.6 298.833 162.333 295.5 150.5C303.833 140 319.7 115.8 316.5 103C312.5 86.9999 310.5 65.4999 287 56.4999C263.5 47.4999 251.5 26.9999 230.5 27.4999C209.5 27.9999 266.5 109.5 258.5 117.5C252.1 123.9 260.833 120.167 266 117.5C268.5 111 272 95.7999 266 86.9999C258.5 75.9999 219.5 45.4999 188.5 49.4999C157.5 53.4999 245 135.5 266 129C287 122.5 313.5 129.5 334 103C354.5 76.4999 360.5 29.4998 356.5 27.4999C352.5 25.4999 352 18.9998 343 27.4999C334 35.9999 293 75 290 81C287 86.9999 278 100 284 98.5C288.8 97.3 307.667 62.3333 316.5 45C318.167 38.8333 321 26.1 319 24.5C316.5 22.5 313.5 5.49999 273 13C232.5 20.5 244 25 268.5 30C288.1 34 298.667 33.6667 301.5 33C306.5 32 311.2 28.3 290 21.5C263.5 13 278 29.4994 285.5 26C293 22.5006 315.5 16.5 334 6.5C352.5 -3.5 386 3 389.5 40C393 77 385 176 380.5 192C376 208 417.5 275 420.5 316.5C423.5 358 421.5 385.5 374.5 407.5C336.9 425.1 320.167 420.5 316.5 416C307 412.13 312.5 407.5 301.5 400C292.7 394 290.167 419.5 290 433C279.5 454.667 241.4 505.1 173 533.5C104.6 561.9 65.1667 556.667 54 550.5Z" stroke="black" stroke-width="4"/>
</svg>
