<svg width="769" height="1002" viewBox="0 0 769 1002" fill="none" xmlns="http://www.w3.org/2000/svg">
<path d="M402.141 378.063C409.873 370.813 423.934 379.378 428.239 379.513C442.305 379.955 456.871 378.22 462.553 378.788C472.219 379.754 494.934 379.513 501.7 375.646C501.7 375.646 498.8 374.679 494.933 374.196C491.067 373.713 488.167 371.296 482.368 371.296C479.311 371.296 470.285 374.679 468.352 374.679C466.418 374.679 460.136 370.813 452.403 371.779C444.671 372.746 439.354 377.065 435.488 377.065L429.688 379.995C436.454 385.795 448.053 392.561 461.585 391.594C475.117 390.628 474.634 391.594 488.649 383.378C502.666 375.162 507.015 370.812 505.082 384.828C503.149 398.844 513.781 373.712 513.781 373.712C513.781 373.712 516.522 363.724 513.781 350.997C511.85 342.033 498.315 334.565 494.449 330.699C494.449 330.699 483.012 299.284 480.917 288.168C479.626 281.319 493 290.585 500.249 294.934C507.499 299.284 526.348 287.685 530.697 284.785C535.046 281.885 527.313 275.119 521.444 275.032C517.904 277.899 513.751 280.435 506.048 280.435C495.415 280.435 478.017 274.635 478.017 274.635C478.5 265.131 472.059 248.376 483.012 239.354C499.276 225.957 508.372 224.245 520.547 229.205C524.897 230.976 542.94 254.82 542.94 254.82C542.94 254.82 533.272 267.708 530.051 266.419C526.83 265.131 513.942 251.598 508.142 251.598C502.342 251.598 484.944 254.175 483.01 258.041C481.076 261.908 477.856 273.507 480.433 270.285C483.01 267.063 488.166 263.841 488.166 263.841C488.985 266.811 491.771 270.769 495.415 270.769C499.686 270.769 503.148 267.74 503.148 264.003C503.148 262.59 502.651 261.281 501.805 260.197C502.268 260.157 502.715 260.136 503.148 260.136C509.914 260.136 525.379 271.735 525.379 271.735C525.379 271.735 551.96 280.435 551.96 290.101C551.96 299.767 552.603 313.457 552.603 313.457C552.603 313.457 583.534 316.034 586.111 297.991C588.688 279.948 573.224 254.171 580.957 254.171C588.69 254.171 603.514 232.91 603.514 232.91C603.514 232.91 595.782 239.354 578.379 241.284C586.111 238.706 596.423 215.508 596.423 205.198C596.423 194.888 601.577 189.732 578.379 179.422C593.844 171.689 593.844 140.758 575.802 117.56C557.759 94.361 550.027 109.827 550.027 109.827C550.027 109.827 559.051 84.7 542.942 68.59C527.264 52.911 511.363 58.276 511.363 58.276C511.363 58.276 514.59 38.304 493.967 30.571C473.346 22.838 454.014 48.614 458.524 38.303C463.69 26.495 444.348 2.21704 444.348 2.21704C444.348 2.21704 446.925 20.26 434.038 31.215C415.512 46.964 400.524 17.033 377.326 14.455C354.128 11.877 346.395 27.344 346.395 27.344C346.395 27.344 340.961 18.059 321.269 26.059C300.647 34.436 301.291 49.257 301.291 49.257C301.291 49.257 287.117 47.325 269.072 60.213C251.027 73.101 253.6 96.939 253.6 96.939C253.6 96.939 240.578 102.766 230.402 120.137C219.452 138.829 225.248 169.111 225.248 169.111C225.248 169.111 212.359 179.422 209.782 194.887C207.205 210.353 225.248 228.396 225.248 228.396C225.248 228.396 212.359 233.551 209.782 241.284C207.205 249.017 209.782 269.638 230.402 285.103C222.67 297.991 230.402 313.457 235.558 323.767C240.714 334.077 261.333 339.233 261.333 339.233C261.333 339.233 274.222 359.854 263.912 362.431C253.602 365.008 240.713 370.165 240.713 388.208C240.713 406.251 225.248 457.803 220.092 478.424C199.47 483.579 191.739 506.778 191.739 506.778C191.739 506.778 194.316 517.088 178.85 522.243C163.385 527.399 122.143 566.061 114.411 576.373C106.679 586.685 70.591 609.882 57.703 627.924C44.814 645.969 4.59303 715.303 3.57303 764.537C2.44803 818.831 -0.455998 893.252 0.996002 898.572C2.448 903.891 26.773 906.308 44.818 911.464C62.862 916.62 120.859 941.107 146.634 946.262C172.409 951.418 214.94 972.039 227.828 970.75C240.717 969.46 239.428 929.507 239.428 921.774C239.428 914.041 232.985 884.397 231.695 871.51C230.405 858.623 229.118 835.423 231.695 821.247C234.272 807.07 242.007 783.874 240.717 773.562C239.428 763.25 224.141 738.455 226.539 740.052C261.336 763.25 240.717 834.135 240.717 848.311C240.717 862.488 247.16 916.619 242.005 955.283C236.85 993.947 247.161 982.347 269.07 990.081C290.979 997.813 339.955 995.234 387.64 999.102C435.327 1002.97 499.764 1001.84 519.096 992.819C519.096 981.219 521.997 963.016 521.03 950.289C520.061 937.56 517.809 892.134 517.809 889.556C517.809 886.977 504.922 888.266 504.922 888.266C504.922 888.266 500.274 900.451 495.9 903.732C488.168 909.532 467.546 908.886 464.323 903.732C461.1 898.578 454.659 880.536 464.969 871.513C475.28 862.491 488.025 862.166 493.322 869.579C499.767 878.6 514.588 877.956 514.588 877.956C514.588 877.956 510.077 850.244 507.501 840.58C504.924 830.916 490.747 796.764 489.458 791.607C488.169 786.452 483.013 761.963 480.436 758.097C477.859 754.231 467.547 755.518 463.681 756.808C459.815 758.097 461.929 766.515 453.371 773.563C442.415 782.585 425.309 772.586 423.083 767.763C419.217 759.387 423.083 738.765 437.26 737.476C451.436 736.186 454.658 736.832 457.238 744.565C459.818 752.298 471.414 742.629 471.414 740.053C471.414 737.476 455.949 702.676 449.506 689.789C443.063 676.902 430.174 644.68 422.441 635.659C414.709 626.638 406.975 633.082 406.975 633.082C406.975 633.082 408.909 649.838 401.176 659.504C397.575 664.002 375.247 671.39 370.888 658.858C365.732 644.039 364.445 633.083 378.621 627.927C392.797 622.773 397.309 631.793 403.752 624.061C408.971 617.8 413.418 614.395 406.975 602.152C405.775 599.87 406.977 593.13 396.665 590.552C386.353 587.974 377.333 572.51 374.111 557.044C371.207 543.107 352.848 496.47 346.403 486.159C339.958 475.848 342.536 457.806 338.67 455.228C334.803 452.65 310.314 437.185 293.561 429.452C276.808 421.719 265.208 410.121 260.053 397.232C254.898 384.343 253.61 379.188 260.053 372.744C260.053 372.744 285.826 395.298 288.404 401.742C290.982 408.186 337.38 440.406 341.246 445.561C345.113 450.716 352.846 468.76 352.848 471.982C352.848 471.982 378.623 501.625 385.067 509.357C391.51 517.09 396.827 543.995 404.559 560.748C412.291 577.501 426.309 586.686 439.196 582.819C452.083 578.952 495.743 576.534 506.052 571.381C516.362 566.227 510.885 546.249 508.951 518.218C507.156 492.184 520.39 474.56 524.257 462.961L534.569 451.362C547.616 455.389 561.149 461.188 561.633 499.047C561.782 510.646 579.676 560.91 580.965 571.22C582.255 581.531 582.255 598.283 584.832 600.863C587.408 603.441 617.051 629.217 622.206 629.217C623.496 649.839 624.783 671.745 626.072 689.79C627.361 707.835 633.966 757.936 628.809 769.534C623.654 781.134 609.319 794.182 605.453 807.071C601.586 819.96 583.544 857.335 578.389 865.067C573.233 872.8 560.506 874.573 560.344 880.533C560.182 886.493 570.656 890.843 570.656 907.597C570.656 924.351 571.944 950.127 571.944 957.861C571.944 965.593 574.198 982.509 574.198 988.953C574.198 988.953 642.184 981.383 664.092 969.621C686 957.859 728.855 911.625 728.855 911.625C741.744 902.604 769.13 885.688 767.841 874.09C765.719 854.997 761.507 772.478 760.752 765.668C759.464 754.069 742.065 697.522 733.043 693.656C724.021 689.79 676.337 593.13 671.183 587.975C666.029 582.82 622.207 563.488 615.764 560.911C609.321 558.332 588.7 468.117 588.7 465.539C588.7 465.539 541.659 433.964 540.37 429.453C539.08 424.942 554.223 330.699 551.969 328.927C546.492 369.686 530.059 441.698 493.323 460.381C475.281 468.114 441.776 475.206 397.957 446.853C354.137 418.499 330.94 410.122 315.475 399.811C300.01 389.5 299.364 373.391 299.364 365.658C285.186 364.369 282.615 359.218 278.099 349.548C271.116 334.594 261.346 330.86 256.19 315.395C251.034 299.929 251.03 277.371 266.496 285.103C281.962 292.836 287.121 297.996 294.854 316.039C302.586 334.082 304.512 314.75 304.52 296.707C304.523 288.333 305.809 285.751 310.319 281.885C314.829 278.019 353.814 271.736 353.814 271.736C363.963 258.204 381.362 246.605 396.828 246.605C412.293 246.605 423.409 257.721 424.859 262.07C426.308 266.42 420.186 275.764 416.16 277.536C412.203 279.277 406.494 283.335 392.961 284.302C379.429 285.269 369.763 282.369 362.03 282.369C368.315 273.509 374.256 270.981 380.124 267.394L380.395 267.87C380.395 272.141 384.29 275.603 389.094 275.603C393.898 275.603 397.794 272.141 397.794 267.87C397.794 266.802 397.55 265.786 397.11 264.861L398.694 264.648C404.721 265.563 410.359 267.871 415.192 270.771C420.025 273.67 427.597 273.509 429.53 267.709C431.464 261.91 427.758 254.839 427.758 243.222C427.758 235.972 431.142 231.945 430.175 229.045C429.208 226.146 410.839 225.493 397.311 225.823C377.496 226.306 360.097 234.039 349.464 239.839L314.183 267.387C314.183 257.076 325.78 233.553 312.891 228.397C300.002 223.241 294.849 200.043 297.426 192.31C312.891 200.043 337.383 207.135 343.826 201.98C350.269 196.825 315.472 196.18 312.895 175.56C310.318 154.94 331.53 187.804 347.049 187.804C364.448 187.804 323.851 170.405 333.517 160.095C339.934 153.25 355.746 134.963 355.746 134.963C355.746 134.963 354.138 170.404 383.78 165.25C413.421 160.095 431.466 143.34 435.332 138.185C453.377 136.896 450.8 142.052 464.976 149.784C479.153 157.517 489.464 185.87 483.021 196.181L493.334 171.694C498.489 160.095 501.076 198.759 515.252 205.203C529.429 211.646 542.332 209.069 542.332 209.069C543.62 216.157 546.226 245.156 546.871 251.599C535.917 236.134 535.292 230.656 526.472 225.34C517.652 220.024 494.453 219.54 485.996 223.406C477.538 227.273 469.806 242.738 469.806 250.471C469.806 250.471 467.872 256.754 469.806 261.104C471.739 265.454 479.415 296.038 481.083 300.574C484.227 309.113 491.554 324.899 492.521 330.699C493.488 336.498 496.549 346.97 488.654 350.031C478.947 353.793 479.955 351.964 483.822 345.198C487.688 338.431 481.452 337.432 478.506 343.748C475.122 350.998 467.39 355.347 462.557 351.481C457.724 347.615 463.524 341.332 462.557 339.398C461.59 337.464 448.058 336.498 447.091 343.264C446.124 350.031 436.84 348.523 433.559 342.298C428.888 333.437 439.844 326.027 439.844 321.194C432.111 326.994 421.512 333.062 412.135 343.103C398.444 357.763 391.32 386.079 392.156 388.211C392.151 388.212 394.407 385.312 402.141 378.063Z" stroke="black" stroke-miterlimit="10"/>
</svg>
