<svg width="357" height="601" viewBox="0 0 357 601" fill="none" xmlns="http://www.w3.org/2000/svg">
<path d="M49.0001 599C46.3335 571.667 40.0001 516.1 36.0001 512.5C32.0001 508.9 40.0001 470.667 44.5001 452C45.3334 446.167 44.0001 429.5 32.0001 409.5C17.0001 384.5 4.00008 338 3.50008 329C3.00008 320 -3.49992 277 7.00008 261.5C15.4001 249.1 42.1667 269 54.5 280.5C60.1667 288 71.6 305.6 72 316C72.4 326.4 66.8333 321.333 64 317.5C50.6667 308.333 23.3 287.6 20.5 278C17 266 12.5 253 23 248C33.5 243 48.5 239.5 54.5 232.5C60.5 225.5 61 222.5 62 224C63 225.5 59.5 236.5 57 237.5C54.5 238.5 41 253 23 253C8.6 253 13 237.333 17 229.5C31.3333 211.167 59.7 164.8 58.5 126C57 77.5 95.5 28.5 105.5 22.5C115.5 16.5 145 -14.5 184.5 9.49996C224 33.5 233.5 58.5 237.5 84.5C241.5 110.5 238 113.5 240 115.5C242 117.5 245 132.5 243.5 132C242 131.5 237 132.5 237.5 117.5C238 102.5 237.5 83 230.5 75C223.5 67 217 51.5 206 47C195 42.5 196 36 158.5 48.5C121 61 85.5 98 79.5 113.5C73.5 129 75.5 158.5 74.5 159.5C73.5 160.5 69.5 195 66.5 201.5C63.5 208 74 253 82.5 262C91 271 93.5 314 88.5 315C83.5 316 82 316.5 75 303.5C69.4 293.1 68 285.833 68 283.5C66.8333 278 66.3 269.7 73.5 280.5C82.5 294 89.5 339.5 81.5 359.5C73.5 379.5 81 380.5 67 417.5C55.8 447.1 73.6667 491.833 84 510.5C87.3333 518.167 93.3 528.3 90.5 507.5C87 481.5 70.5 450.5 98.5 392C126.5 333.5 119 349.5 123 296.5C126.2 254.1 125 246.833 124 248.5C122.5 243.167 118.9 236.9 116.5 254.5C114.1 272.1 115.167 281.5 116 284C116.833 288.333 120.3 293.9 127.5 281.5C136.5 266 130 229.5 124 221.5C118 213.5 91 185 105 167.5C119 150 154 132.5 156 124.5C158 116.5 173 109.5 174 84.5C174.8 64.5 190.333 57.5 198 56.5C203.5 55 216.7 57.6 225.5 80C236.5 108 237.5 116 234 117.5C230.5 119 216 127.5 212 126.5C208 125.5 219.422 115.5 227.5 115.5C235.578 115.5 233.5 118.5 232.5 121.5C231.5 124.5 233 126.5 227.5 126.5C222 126.5 220.5 127 216.5 128.5C212.5 130 205.5 136 206 138C206.5 140 202.5 146 212 141C219.6 137 225.5 136 227.5 136C230.167 134.862 233.7 131.868 226.5 129C219.3 126.132 211.833 133.138 209 137C206.333 140 204.1 144.9 216.5 140.5C228.9 136.1 237.333 136.667 240 137.5C244 137.667 250.2 137.3 243 134.5C235.8 131.7 234 129.667 234 129C233.5 128 232.1 126.7 230.5 129.5C228.9 132.3 243.5 136.333 251 138C253 138.333 256.1 140.4 252.5 146C248 153 225.5 172.5 221 171C216.5 169.5 213.5 164 213.5 163C213.5 162 213.5 143.5 198.5 161.5C186.5 175.9 177.5 176.167 174.5 174.5C172.333 173.167 167.4 169.2 165 164C162.6 158.8 161.333 154.167 161 152.5C159.667 151.167 155.3 148.2 148.5 147C141.7 145.8 142.667 140.833 144 138.5C144.333 138.333 146.7 138.8 153.5 142C160.3 145.2 163.333 145 164 144.5C171.333 143 186.7 140.1 189.5 140.5C193 141 199 139 204.5 142.5C210 146 210 147 214.5 145C219 143 243 138 247 139C251 140 255.5 140 256 140.5C256.5 141 263 138.5 252 151.5C241 164.5 224 174 220.5 172.5C217 171 220.5 178 210 190C199.5 202 202.5 208 200 211.5C197.5 215 198.5 221.5 187.5 226.5C176.5 231.5 149.5 219.5 148.5 216C147.7 213.2 143.167 207.833 141 205.5C137.5 200.833 133.5 193.8 145.5 203C160.5 214.5 173.5 229.5 173 233C172.5 236.5 181.5 247.5 201.5 250C221.5 252.5 215.5 244.5 237 262.5C258.5 280.5 296.5 327 278.5 317C260.5 307 251 274 252 273.5C253 273 271 276.5 286.5 291C302 305.5 307 321.5 307 324.5C307 327.5 309 341 307 349.5C305.4 356.3 304 380 303.5 391C304 397.667 305.4 410.4 307 408C308.6 405.6 310 397 310.5 393C309.833 387.333 308.2 376 307 376C305.5 376 299.5 351 301.5 341C303.5 331 300.5 292.5 300 291C299.5 289.5 299.5 247 286.5 237.5C273.5 228 280 224 266 213C252 202 253 163 253.5 155C254 147 257.5 149.5 257 156C256.6 161.2 259.5 152.833 261 148C261.333 145 261 138.8 257 138C252 137 250 132 251 132C252 132 253 128 263.5 133.5C274 139 270 135 272.5 137C275 139 285 139 272.5 143.5C262.5 147.1 261.667 159.667 262.5 165.5C262.167 173.667 262.8 186.5 268 172.5C274.5 155 276.5 151.5 278.5 149C280.1 147 283.167 144.5 284.5 143.5C287 141.833 290.8 140 286 146C280 153.5 272 154 271 161C270.2 166.6 268.667 175.667 268 179.5C266.833 184.167 266.1 191 272.5 181C280.5 168.5 276.5 169.5 290 158.5C303.5 147.5 293 143.5 288 147C284 149.8 295.667 153.167 302 154.5C303.667 155.333 307.1 157.3 307.5 158.5C307.9 159.7 313.667 166.333 316.5 169.5C312 164.167 301.5 154.5 295.5 158.5C288 163.5 288.5 163.5 284 168C279.5 172.5 272.5 179.5 271 180C269.5 180.5 273 190 286 180C299 170 295.5 169 301.5 172.5C307.5 176 303 183.5 296.5 189.5C291.3 194.3 289.333 201.5 289 204.5C297.167 216 313.5 240.1 313.5 244.5C313.5 250 292 218 291 213C290 208 315 171 317.5 171C320 171 322 207.5 329 234C336 260.5 359 355 356 364.5C353 374 355.5 416.5 349 427.5C342.5 438.5 341.5 448.5 317.5 431C293.5 413.5 323.5 397 322 426.5C320.5 456 313 452 329.5 489.5C346 527 370.5 550.5 315.5 507C260.5 463.5 256.5 382.5 258.5 367.5C260.5 352.5 266.5 305 284 353C301.5 401 272 450 268 452.5C264 455 223 487.5 169 426.5C125.8 377.7 137.667 329.833 149 312C157 299.5 180.9 287.3 212.5 338.5C252 402.5 216.5 483.5 208 495.5C199.5 507.5 167.5 548.5 153.5 503C142.3 466.6 123.833 444.5 116 438C110.833 428.833 100.5 420.5 100.5 460.5C100.5 510.5 97 568.5 86 587.5C77.2 602.7 57.6668 601.5 49.0001 599Z" stroke="black"/>
</svg>
