<svg width="309" height="443" viewBox="0 0 309 443" fill="none" xmlns="http://www.w3.org/2000/svg">
<path d="M29 435C49.1667 437.667 89.7 440.2 90.5 429C91.5 415 100.5 345.5 112 345C123.5 344.5 130.5 356 152.5 354.5C174.5 353 198 355 204.5 353.5C211 352 229 351 233.5 348C237.1 345.6 236.667 337.667 236 334C235.5 329 237.1 319.7 247.5 322.5C260.5 326 318 339 304.5 286C291 233 283.5 148 249 141.5C214.5 135 198.5 125 184 105C169.5 85.0001 175.5 83.0001 178 73.5001C180.5 64.0001 172 57.5001 164 66.5001C156 75.5001 145.5 64.4999 143 61.9999C140.5 59.4999 123.5 40.9999 111 45.4999C98.5 49.9999 99 71.5 102 79.5C104.4 85.9 108.333 93.1667 110 96C100.833 92 83.7 80.5001 88.5 66.5001C94.5 49 84 50 93 35C102 20 115 9.50001 129 4.50001C143 -0.499987 165.5 4.50001 178 17.5C190.5 30.5 206.5 6.5 216.5 6.5C226.5 6.5 244.5 39.4999 228.5 56.5C215.7 70.1 223.167 102.833 228.5 117.5C218.5 104.333 200.3 73.7 207.5 56.5C214.7 39.3 205.167 37.3333 199.5 38.5C196.667 32.5 191 21.8 191 27C191 33.5 199 44.4999 198.5 45.4999C198 46.5 205 64.5 197 72C189 79.5 184 94.5 183 87C182 79.5 185 62.5 185.5 61C186 59.5 186.996 50 165.5 56.5C144.004 63 125 32.5 117.5 33C110 33.5 103.5 33 95.5 64C87.5 95 125 127.5 134 127.5C143 127.5 161 124.5 165.5 115.5C169.1 108.3 172.667 99.5 174 96C182 102.167 197.5 116.6 195.5 125C193 135.5 187.5 161 182 162.5C176.5 164 168 147.5 162.5 149C157 150.5 153 133 144 132C135 131 134.5 151 135.5 154C136.5 157 139 170 143 159C146.2 150.2 153.667 150.667 157 152C158.833 152.667 164.2 151.5 171 141.5C179.5 129 183.5 115.5 185.5 116.5C187.5 117.5 183.5 135.5 176 141.5C168.5 147.5 148 147 146 149C144 151 139 146.5 139.5 144C140 141.5 106.5 168.5 97.5 166.5C90.3 164.9 82.8333 183.833 80 193.5C75.6667 195 61.8 198.6 41 201C20.2 203.4 7.33333 208.333 3.5 210.5C14 222.5 35.5 248.8 37.5 258C40 269.5 53 281.5 54 281.5C55 281.5 63 325 74 333.5C85 342 84.5 349.5 106 341.5C127.5 333.5 103.5 302 115.5 297C127.5 292 153.5 290 155.5 287.5C157.5 285 119.5 240 119.5 236.5C119.5 233 113 222 118.5 220.5C124 219 116.5 232.5 115 232.5C113.5 232.5 84 199.5 82 200C80 200.5 11 210 11 212C11 214 27 236.5 29.5 237C32 237.5 44 237 50 255C56 273 69 228 70 226.5C71 225 81.5 215.5 79.5 229.5C77.5 243.5 76 244 75.5 245.5C75 247 69.5 262.5 78.5 247C87.5 231.5 85 233.5 86.5 231.5C88 229.5 90.5 227.5 91.5 228C92.5 228.5 98.5 229.5 91 244C85 255.6 84.5 258.5 85 258.5C89.6667 252.667 99.5 240.8 101.5 240C104 239 110.5 237.5 107 246C104.2 252.8 101.167 256.167 100 257C97.8333 259.333 94.1 264 96.5 264C99.5 264 114.5 252 116 253.5C117.5 255 120 256.5 110.5 267.5C101 278.5 81.5 297 76 296C70.5 295 62 296 63.5 304C65 312 73 319 78 313.5C82 309.1 86.6667 298.667 88.5 294C95.1667 297.333 107.2 304 102 304C96.8 304 93.1667 296.667 92 293C114 291.333 158 287.6 158 286C158 284 127.5 256.5 128 255C128.5 253.5 147.5 250.5 149 251C150.5 251.5 165.5 268.5 211 269.5C247.4 270.3 253.5 269.833 252 269.5C247.167 251.333 238.1 215.4 240.5 217C243.5 219 256.5 257.5 256.5 258C256.5 258.5 259.5 267.5 268 268.5C276.5 269.5 274.5 274 260.5 274C246.5 274 211 274 211 275.5C211 277 207.5 297.5 206 298.5C204.5 299.5 207 306 183 303C159 300 172.5 288.5 173.5 288.5C174.5 288.5 170 284.151 162 284C155.6 283.88 169.667 282.616 177.5 282C177.167 277.833 177.6 269.6 182 270C187.5 270.5 211.5 269.5 206 280.5C200.5 291.5 197 312 205.5 311.5C214 311 235.5 321.5 234.5 323.5C233.5 325.5 225 354.5 232 361C239 367.5 244.5 435.5 248.5 434C252.5 432.5 270 432 266 427C262 422 230.5 433 229 434C227.5 435 37 447 29 435Z" stroke="black" stroke-width="3.67396"/>
</svg>
