<svg width="527" height="553" viewBox="0 0 527 553" fill="none" xmlns="http://www.w3.org/2000/svg">
<path d="M79 481C50.5 457 -4.20001 395 4.99999 339C16.5 269 66 182.5 106 156C146 129.5 225.5 96.5 297 123C354.2 144.2 373.833 116.5 376.5 100C379.5 83.8333 386.9 52.8 392.5 58C399.5 64.5 414 57.5 387.5 110.5C366.3 152.9 373.667 147.5 380 139.5C396 122.5 433.2 93.6 454 114C474.8 134.4 507.667 128.5 521.5 123C526 130 521.3 146.4 466.5 156C398 168 390.5 141.5 366 156C341.5 170.5 342 205.5 349.5 204.5C357 203.5 377.5 172 319.5 102.5C273.1 46.9 287.833 14.3333 301 5C306.833 14.8333 321.6 36 334 42C349.5 49.5 348.5 103.5 346.5 107C344.5 110.5 369 167.5 401.5 186C427.5 200.8 437.667 265.5 439.5 296C441.833 314 445.1 353.7 439.5 368.5C432.5 387 406.5 463 363 490.5C319.5 518 277 533.5 221 536C165 538.5 149.5 538 144 546C138.5 554 85.5 548 90 526.5C94.5 505 83.5 481 79 481Z" stroke="black" stroke-width="6.76417"/>
</svg>
