<svg width="390" height="391" viewBox="0 0 390 391" fill="none" xmlns="http://www.w3.org/2000/svg">
<path d="M1.99978 163C5.16645 148.333 13.4998 116.1 21.4998 104.5C31.4998 90 46.9998 66.5 48.4998 65.5C49.9998 64.5 77.4998 37 88.9998 31C100.5 25 122.5 13.5 124 13.5C125.5 13.5 147 3.49997 167.5 1.99997C188 0.499972 217.5 0.999972 219 1.99997C220.5 2.99997 242 5.50005 242.5 6.00005C243 6.50005 270 15.0001 274.5 17.5001C279 20.0001 308.5 35.5001 318 44.5001C327.5 53.5001 350 77.5001 354 84.0001C358 90.5001 376 123.5 377.5 129.5C379 135.5 385 153 386.5 164C388 175 388.5 205 388.5 205.5C388.5 206 389.5 233 377 262C367 285.2 361.5 295.333 360 297.5C353.166 307.667 337.7 329.3 330.5 334.5C321.5 341 324 342 312 350.5C300 359 277 375.5 254.5 380.5C232 385.5 236.5 389 199.5 390C169.9 390.8 139.833 383 128.5 379C121.166 376 106 369.7 104 368.5C101.5 367 77.4998 352 72.4998 347.5C67.4998 343 49.9998 327 43.9998 319.5C37.9998 312 24.4998 292 20.4998 284.5C16.4998 277 8.49978 255.5 5.49978 245C3.09978 236.6 2.16645 230.167 1.99978 228C1.83312 227.5 1.39978 226.8 0.999783 228C0.499783 229.5 6.49978 251.5 6.99978 252.5C7.49978 253.5 13 269.5 14.5 272.5C16 275.5 20 285.5 21 286.5C22 287.5 32 304.5 33 305.5C34 306.5 47.5 325.5 48 325.5C48.4 325.5 56.5 333.5 60.5 337.5C65.8333 342.333 76.6 352 77 352C77.5 352 103 369 104.5 369.5C106 370 128.5 380 129.5 380C130.5 380 163.241 389.32 173.5 389.5C183.759 389.68 202 391 217 389.5C232 388 253.782 381.663 254.5 381C255.218 380.337 283.5 370.792 285 369C286.5 367.208 316.5 348 317 347.5C317.5 347 335 331 336 330.5C337 330 349 315 349 314.5C349 314 364.364 292 364.5 290.5C364.636 289 374 271.5 374 271C374 270.5 386.5 234.5 386.5 233.5C386.5 232.5 389.598 202.5 389 201.5C388.521 200.7 388.134 183.833 388 175.5C386.667 166.667 383.9 148.9 383.5 148.5C383.1 148.1 378 132 375.5 124C371 114.5 361.9 95.5001 361.5 95.5001C361.1 95.5001 351.333 80.8334 346.5 73.5001L329 54.5001C324.167 49.6667 314.4 40.0001 314 40.0001C313.5 40.0001 295 28.5001 294.5 28.0001C294 27.5001 280 19.5001 279.5 19.5001C279 19.5001 262 11.0001 260.5 11.5001C259.3 11.9001 247 7.33339 241 5.00005C232.333 3.66672 214.9 1.00005 214.5 1.00005C214 1.00005 173 0.500054 171.5 1.00005C170 1.50005 147.5 4 145 6C142.5 8 116 15.3961 115.5 16.5C115.1 17.3831 96.6667 26.5346 87.5 31C75.8333 40.6666 52.4 60.3 52 61.5C51.5 63 37.8552 78 38 79C38.1448 80 21.8365 102 21.4998 103.5C21.1631 105 8.5 131.5 8.5 135.5C8.5 139.5 0.5 162 1 162.5C1.4 162.9 1.83319 163 1.99978 163Z" stroke="black"/>
</svg>
