<svg width="479" height="476" viewBox="0 0 479 476" fill="none" xmlns="http://www.w3.org/2000/svg">
<path d="M229 473.5C307.333 476.5 466.5 434.1 476.5 240.5C489 -1.49995 162 -74.9999 49.4999 93.0001C-40.5001 227.4 17.6665 345 57.9999 387C97.6666 423.167 179.9 488 191.5 458C206 420.5 197 396.5 180.5 394.5C164 392.5 152 390 156 357C159.2 330.6 128 340.667 112 349C103.333 345.833 85.5 335.9 83.5 321.5C81.5 307.1 71 314.5 66 320C59.5 319.167 47.4 313.5 51 297.5C55.5 277.5 49.9998 274 57.9999 268.5C66 263 55.5 243 52.5 243.5C49.5 244 37.5 257 42 261C46.5 265 23.5 261 24.5 236.5C25.5 212 27.5 209 21.5 205.5C15.5 202 15.5 185 18 182.5C20.5 180 11 136.5 62 82C113 27.5 36 99.5 102 95C168 90.5 94.5 114 108 125.5C121.5 137 140 148 150.5 134C161 120 176.5 148.5 188 137C197.2 127.8 191.833 107.5 188 98.5C181.667 92.1667 165 79.5 149 79.5C129 79.5 152.5 35 160.5 41.5C168.5 48 193 54 194.5 50C196 46 195 94 214 90C233 86 190 118.5 202 117.5C214 116.5 274.5 145 283.5 129C292.5 113 256 125.5 261.5 79.5C267 33.5 219.5 85 224 38.5C228.5 -8 178 47.5 183 21.5C188 -4.5 292 -2.5 360 38.5C414.4 71.3 436.667 102.167 441 113.5C430 117.667 406.1 121.6 398.5 104C389 82 378.5 46 370.5 59.5C362.5 73 380 95.5 319.5 108.5C271.1 118.9 333.333 129.167 370.5 133C364.833 148 348.7 178.2 329.5 179C305.5 180 307 241 346.5 216.5C386 192 371.5 231 398.5 175.5C425.5 120 406 193 415 193C424 193 425 166 454.5 159C484 152 438.5 207.5 431 212C423.5 216.5 380.5 218.5 363.5 232C349.9 242.8 322.167 242.167 310 240.5C304.167 241.667 291.6 253 288 289C283.5 334 323.5 340.5 361 340C391 339.6 382.833 380.5 375 401C370.333 406.833 363.8 419.5 375 423.5C389 428.5 221 307 244.5 253C268 199 255.5 133 223.5 137C197.9 140.2 201.167 143.667 206 145C214.333 155.833 226.5 180.6 208.5 193C186 208.5 205.5 183 183 175.5C165 169.5 178.833 197.333 188 212C187.167 213.667 181.1 218 163.5 222C141.5 227 166 240 139 253C112 266 156 267.5 129 282.5C102 297.5 102 315.5 129 326.5C156 337.5 139.5 307 167 307C194.5 307 198 303.5 213.5 317.5C229 331.5 237.5 300.5 260.5 340C278.9 371.6 268.167 377.167 260.5 376C263.5 386.667 265.7 410.5 250.5 420.5C235.3 430.5 240.167 442.333 244.5 447C234.167 453.167 216.6 467.1 229 473.5Z" stroke="black" stroke-width="3.67396"/>
</svg>
