<svg width="297" height="503" viewBox="0 0 297 503" fill="none" xmlns="http://www.w3.org/2000/svg">
<path d="M44 499C34 479 31.4999 395 29.9999 390.5C28.4999 386 18.4999 291 18.4999 286C18.4999 281 15.9999 249 1.49995 265.5C-10.1001 278.7 96 279.333 150.5 278C167 277.833 201.1 275.5 205.5 267.5C209.9 259.5 173 257.833 154 258C122 258.666 55.2 259.6 44 258C29.9999 256 17 260 10.5 240C4 220 66.5 183.5 92 182C117.5 180.5 146 185.5 146.5 194.5C147 203.5 96.5 207 92 206.5C87.5 206 46.5 203 79 190.5C111.5 178 158.5 192.5 165.5 199.5C172.5 206.5 212 241.5 183 262.5C154 283.5 109.5 257 106.5 251C103.5 245 116 183.5 123 167C130 150.5 137 104 141 92.4999C145 80.9999 150 66.9999 152 66.9999C154 66.9999 157 63.4999 165.5 66.9999C172.3 69.7999 173 71.4999 172.5 72C170.667 72.5 166 72.9 162 70.5C158 68.1 155 64.5 154 63C152.667 61.3333 152.3 58.2 161.5 59C173 60 175.5 62.5 175.5 64C175.5 65.5 167.5 64 164.5 61.5C162.1 59.5 159.5 57.6667 158.5 57C156.167 55.5 152.8 52.2 158 51C163.2 49.8 171.833 52.1667 175.5 53.5C177.667 54.6667 180.2 57 173 57C165.8 57 161 50.6667 159.5 47.5C158.667 46.5 161.3 43 178.5 37C200 29.5 235 15.5 240 14C245 12.5 281.5 0.500022 285.5 1.50002C288.7 2.30002 293.5 9.50001 295.5 13C296.5 14.8333 296.8 18.5 290 18.5C283.2 18.5 268.5 23.1667 262 25.5C235.833 33.8333 183 51.9 181 57.5C178.5 64.5 165.5 101 163.5 110C161.5 119 132 219.5 131.5 226.5C131 233.5 118.5 271.5 117 291C115.5 310.5 102 449 125 454.5C148 460 150 287 164.5 285.5C179 284 200.5 278.5 195.5 287.5C190.5 296.5 172 459.5 173 461C174 462.5 157.5 472 119 479C80.5 486 45.5 489.499 53.5 494C61.5 498.5 98 501 113 499C125 497.4 133.667 497.333 136.5 497.5C141.5 497 152.6 495.1 157 491.5C162.5 487 164 484 164 479C164 474 170 475 168.5 480.5C167 486 170.5 494.5 159 497.5C147.5 500.5 47.0083 505.017 44 499Z" stroke="black"/>
</svg>
