<svg width="480" height="476" viewBox="0 0 480 476" fill="none" xmlns="http://www.w3.org/2000/svg">
<path d="M230 473.5C308.333 476.5 467.5 434.1 477.5 240.5C490 -1.49995 163 -74.9999 50.4999 93.0001C-39.5001 227.4 18.6665 345 58.9999 387C98.6666 423.167 180.9 488 192.5 458C207 420.5 198 396.5 181.5 394.5C165 392.5 153 390 157 357C160.2 330.6 129 340.667 113 349C104.333 345.833 86.5 335.9 84.5 321.5C82.5 307.1 72 314.5 67 320C60.5 319.167 48.4 313.5 52 297.5C56.5 277.5 50.9998 274 58.9999 268.5C67 263 56.5 243 53.5 243.5C50.5 244 38.5 257 43 261C47.5 265 24.5 261 25.5 236.5C26.5 212 28.5 209 22.5 205.5C16.5 202 16.5 185 19 182.5C21.5 180 12 136.5 63 82C114 27.5 37 99.5 103 95C169 90.5 95.5 114 109 125.5C122.5 137 141 148 151.5 134C162 120 177.5 148.5 189 137C198.2 127.8 192.833 107.5 189 98.5C182.667 92.1667 166 79.5 150 79.5C130 79.5 153.5 35 161.5 41.5C169.5 48 194 54 195.5 50C197 46 196 94 215 90C234 86 191 118.5 203 117.5C215 116.5 275.5 145 284.5 129C293.5 113 257 125.5 262.5 79.5C268 33.5 220.5 85 225 38.5C229.5 -8 179 47.5 184 21.5C189 -4.5 293 -2.5 361 38.5C415.4 71.3 437.667 102.167 442 113.5C431 117.667 407.1 121.6 399.5 104C390 82 379.5 46 371.5 59.5C363.5 73 381 95.5 320.5 108.5C272.1 118.9 334.333 129.167 371.5 133C365.833 148 349.7 178.2 330.5 179C306.5 180 308 241 347.5 216.5C387 192 372.5 231 399.5 175.5C426.5 120 407 193 416 193C425 193 426 166 455.5 159C485 152 439.5 207.5 432 212C424.5 216.5 381.5 218.5 364.5 232C350.9 242.8 323.167 242.167 311 240.5C305.167 241.667 292.6 253 289 289C284.5 334 324.5 340.5 362 340C392 339.6 383.833 380.5 376 401C371.333 406.833 364.8 419.5 376 423.5C390 428.5 222 307 245.5 253C269 199 256.5 133 224.5 137C198.9 140.2 202.167 143.667 207 145C215.333 155.833 227.5 180.6 209.5 193C187 208.5 206.5 183 184 175.5C166 169.5 179.833 197.333 189 212C188.167 213.667 182.1 218 164.5 222C142.5 227 167 240 140 253C113 266 157 267.5 130 282.5C103 297.5 103 315.5 130 326.5C157 337.5 140.5 307 168 307C195.5 307 199 303.5 214.5 317.5C230 331.5 238.5 300.5 261.5 340C279.9 371.6 269.167 377.167 261.5 376C264.5 386.667 266.7 410.5 251.5 420.5C236.3 430.5 241.167 442.333 245.5 447C235.167 453.167 217.6 467.1 230 473.5Z" stroke="#50C878" stroke-width="4"/>
</svg>
